<svg xmlns="http://www.w3.org/2000/svg" xmlns:xlink="http://www.w3.org/1999/xlink" width="354" zoomAndPan="magnify" viewBox="0 0 265.5 362.999992" height="484" preserveAspectRatio="xMidYMid meet" version="1.0"><defs><clipPath id="31badb0da6"><path d="M 0 0.339844 L 265 0.339844 L 265 362.65625 L 0 362.65625 Z M 0 0.339844 " clip-rule="nonzero"/></clipPath><clipPath id="09c114f28f"><path d="M 56.332031 112.53125 L 209.042969 112.53125 L 209.042969 250.273438 L 56.332031 250.273438 Z M 56.332031 112.53125 " clip-rule="nonzero"/></clipPath></defs><g clip-path="url(#31badb0da6)"><path fill="#ffffff" d="M 0 0.339844 L 265 0.339844 L 265 362.660156 L 0 362.660156 Z M 0 0.339844 " fill-opacity="1" fill-rule="nonzero"/><path fill="#ffffff" d="M 0 0.339844 L 265 0.339844 L 265 362.660156 L 0 362.660156 Z M 0 0.339844 " fill-opacity="1" fill-rule="nonzero"/></g><path fill="#000000" d="M 143.234375 233.15625 L 138.746094 233.15625 C 138.078125 233.15625 137.535156 233.699219 137.535156 234.367188 C 137.535156 235.035156 138.078125 235.574219 138.746094 235.574219 L 143.234375 235.574219 C 143.902344 235.574219 144.445312 235.035156 144.445312 234.367188 C 144.445312 233.699219 143.902344 233.15625 143.234375 233.15625 Z M 143.234375 233.15625 " fill-opacity="1" fill-rule="nonzero"/><path fill="#000000" d="M 170.820312 154.277344 L 137.171875 154.277344 C 136.503906 154.277344 135.960938 154.816406 135.960938 155.484375 L 135.960938 193.796875 C 135.960938 194.464844 136.503906 195.003906 137.171875 195.003906 L 170.820312 195.003906 C 171.492188 195.003906 172.03125 194.464844 172.03125 193.796875 L 172.03125 155.484375 C 172.03125 154.816406 171.492188 154.277344 170.820312 154.277344 Z M 169.609375 173.433594 L 155.207031 173.433594 L 155.207031 156.691406 L 169.609375 156.691406 Z M 152.785156 156.691406 L 152.785156 173.433594 L 138.382812 173.433594 L 138.382812 156.691406 Z M 138.382812 175.847656 L 152.785156 175.847656 L 152.785156 192.589844 L 138.382812 192.589844 Z M 155.207031 192.589844 L 155.207031 175.847656 L 169.609375 175.847656 L 169.609375 192.589844 Z M 155.207031 192.589844 " fill-opacity="1" fill-rule="nonzero"/><g clip-path="url(#09c114f28f)"><path fill="#000000" d="M 209.042969 159.992188 C 209.042969 157.386719 207.300781 155.054688 204.808594 154.324219 C 204.695312 154.292969 204.582031 154.277344 204.464844 154.277344 L 177.640625 154.277344 L 177.640625 138.328125 C 180.285156 137.308594 182.125 134.71875 182.125 131.816406 C 182.125 128.582031 179.84375 125.71875 176.695312 125.007812 C 176.609375 124.984375 176.519531 124.976562 176.429688 124.976562 L 150.570312 124.976562 C 147.8125 117.742188 140.847656 112.582031 132.6875 112.582031 C 124.527344 112.582031 117.558594 117.742188 114.804688 124.976562 L 88.945312 124.976562 C 88.855469 124.976562 88.765625 124.988281 88.675781 125.007812 C 85.53125 125.71875 83.25 128.582031 83.25 131.820312 C 83.25 134.71875 85.089844 137.308594 87.734375 138.328125 L 87.734375 154.277344 L 60.90625 154.277344 C 60.789062 154.277344 60.675781 154.292969 60.566406 154.328125 C 58.074219 155.054688 56.332031 157.382812 56.332031 159.992188 C 56.332031 162.28125 57.675781 164.355469 59.695312 165.320312 L 59.695312 240 C 59.695312 240.667969 60.238281 241.210938 60.90625 241.210938 L 87.734375 241.210938 L 87.734375 249.015625 C 87.734375 249.683594 88.277344 250.222656 88.945312 250.222656 L 176.429688 250.222656 C 177.097656 250.222656 177.640625 249.683594 177.640625 249.015625 L 177.640625 241.207031 L 204.464844 241.207031 C 205.136719 241.207031 205.679688 240.667969 205.679688 240 L 205.679688 165.320312 C 207.695312 164.355469 209.042969 162.28125 209.042969 159.992188 Z M 176.285156 127.390625 C 178.273438 127.902344 179.703125 129.742188 179.703125 131.820312 C 179.703125 133.894531 178.273438 135.738281 176.285156 136.246094 L 151.3125 136.246094 C 151.644531 134.820312 151.84375 133.34375 151.84375 131.820312 C 151.84375 130.292969 151.644531 128.816406 151.3125 127.390625 Z M 132.6875 114.996094 C 141.914062 114.996094 149.417969 122.542969 149.417969 131.816406 C 149.417969 141.09375 141.914062 148.640625 132.6875 148.640625 C 123.460938 148.640625 115.953125 141.097656 115.953125 131.816406 C 115.953125 122.542969 123.460938 114.996094 132.6875 114.996094 Z M 85.671875 131.816406 C 85.671875 129.742188 87.101562 127.902344 89.089844 127.390625 L 114.0625 127.390625 C 113.726562 128.8125 113.53125 130.292969 113.53125 131.816406 C 113.53125 133.34375 113.726562 134.820312 114.0625 136.246094 L 89.089844 136.246094 C 87.101562 135.734375 85.671875 133.894531 85.671875 131.816406 Z M 61.097656 156.691406 L 87.734375 156.691406 L 87.734375 163.292969 L 61.097656 163.292969 C 59.710938 162.8125 58.753906 161.480469 58.753906 159.992188 C 58.753906 158.503906 59.710938 157.167969 61.097656 156.691406 Z M 62.121094 238.792969 L 62.121094 165.707031 L 87.734375 165.707031 L 87.734375 238.792969 Z M 133.898438 216.417969 L 148.296875 216.417969 L 148.296875 247.808594 L 133.898438 247.808594 Z M 131.476562 247.808594 L 117.074219 247.808594 L 117.074219 216.417969 L 131.476562 216.417969 Z M 175.214844 247.808594 L 150.722656 247.808594 L 150.722656 215.210938 C 150.722656 214.542969 150.179688 214 149.511719 214 L 115.863281 214 C 115.191406 214 114.652344 214.542969 114.652344 215.210938 L 114.652344 247.808594 L 90.15625 247.808594 L 90.15625 138.660156 L 114.804688 138.660156 C 117.558594 145.894531 124.527344 151.058594 132.6875 151.058594 C 140.847656 151.058594 147.8125 145.894531 150.570312 138.660156 L 175.214844 138.660156 Z M 177.640625 238.792969 L 177.640625 165.707031 L 203.253906 165.707031 L 203.253906 238.792969 Z M 204.277344 163.292969 L 177.640625 163.292969 L 177.640625 156.691406 L 204.277344 156.691406 C 205.664062 157.167969 206.621094 158.503906 206.621094 159.988281 C 206.621094 161.476562 205.664062 162.8125 204.277344 163.292969 Z M 204.277344 163.292969 " fill-opacity="1" fill-rule="nonzero"/></g><path fill="#000000" d="M 197.738281 170.050781 L 183.15625 170.050781 C 182.488281 170.050781 181.945312 170.59375 181.945312 171.261719 L 181.945312 225.351562 C 181.945312 226.019531 182.488281 226.558594 183.15625 226.558594 L 197.738281 226.558594 C 198.40625 226.558594 198.949219 226.019531 198.949219 225.351562 L 198.949219 171.261719 C 198.949219 170.59375 198.40625 170.050781 197.738281 170.050781 Z M 184.371094 185.988281 L 196.527344 185.988281 L 196.527344 197.097656 L 184.371094 197.097656 Z M 184.371094 199.511719 L 196.527344 199.511719 L 196.527344 210.621094 L 184.371094 210.621094 Z M 196.527344 172.46875 L 196.527344 183.574219 L 184.371094 183.574219 L 184.371094 172.46875 Z M 184.371094 224.144531 L 184.371094 213.035156 L 196.527344 213.035156 L 196.527344 224.144531 Z M 184.371094 224.144531 " fill-opacity="1" fill-rule="nonzero"/><path fill="#000000" d="M 122.140625 235.574219 L 126.628906 235.574219 C 127.296875 235.574219 127.839844 235.035156 127.839844 234.367188 C 127.839844 233.699219 127.296875 233.15625 126.628906 233.15625 L 122.140625 233.15625 C 121.472656 233.15625 120.929688 233.699219 120.929688 234.367188 C 120.929688 235.035156 121.472656 235.574219 122.140625 235.574219 Z M 122.140625 235.574219 " fill-opacity="1" fill-rule="nonzero"/><path fill="#000000" d="M 128.203125 154.277344 L 94.554688 154.277344 C 93.882812 154.277344 93.339844 154.816406 93.339844 155.484375 L 93.339844 193.796875 C 93.339844 194.464844 93.882812 195.003906 94.554688 195.003906 L 128.203125 195.003906 C 128.871094 195.003906 129.414062 194.464844 129.414062 193.796875 L 129.414062 155.484375 C 129.414062 154.816406 128.871094 154.277344 128.203125 154.277344 Z M 126.988281 173.433594 L 112.589844 173.433594 L 112.589844 156.691406 L 126.988281 156.691406 Z M 110.164062 156.691406 L 110.164062 173.433594 L 95.765625 173.433594 L 95.765625 156.691406 Z M 95.765625 175.847656 L 110.164062 175.847656 L 110.164062 192.589844 L 95.765625 192.589844 Z M 112.589844 192.589844 L 112.589844 175.847656 L 126.988281 175.847656 L 126.988281 192.589844 Z M 112.589844 192.589844 " fill-opacity="1" fill-rule="nonzero"/><path fill="#000000" d="M 82.214844 170.050781 L 67.636719 170.050781 C 66.964844 170.050781 66.425781 170.59375 66.425781 171.261719 L 66.425781 225.351562 C 66.425781 226.019531 66.964844 226.558594 67.636719 226.558594 L 82.214844 226.558594 C 82.886719 226.558594 83.429688 226.019531 83.429688 225.351562 L 83.429688 171.261719 C 83.429688 170.59375 82.886719 170.050781 82.214844 170.050781 Z M 68.847656 185.988281 L 81.003906 185.988281 L 81.003906 197.097656 L 68.847656 197.097656 Z M 68.847656 199.511719 L 81.003906 199.511719 L 81.003906 210.621094 L 68.847656 210.621094 Z M 81.003906 172.46875 L 81.003906 183.574219 L 68.847656 183.574219 L 68.847656 172.46875 Z M 68.847656 224.144531 L 68.847656 213.035156 L 81.003906 213.035156 L 81.003906 224.144531 Z M 68.847656 224.144531 " fill-opacity="1" fill-rule="nonzero"/><path fill="#000000" d="M 121.519531 136.75 L 127.765625 136.75 L 127.765625 143.039062 C 127.765625 143.707031 128.308594 144.246094 128.980469 144.246094 L 136.441406 144.246094 C 137.109375 144.246094 137.652344 143.707031 137.652344 143.039062 L 137.652344 136.75 L 143.902344 136.75 C 144.570312 136.75 145.113281 136.210938 145.113281 135.542969 L 145.113281 128.046875 C 145.113281 127.378906 144.570312 126.839844 143.902344 126.839844 L 137.652344 126.839844 L 137.652344 120.550781 C 137.652344 119.882812 137.109375 119.34375 136.441406 119.34375 L 128.980469 119.34375 C 128.308594 119.34375 127.765625 119.882812 127.765625 120.550781 L 127.765625 126.839844 L 121.519531 126.839844 C 120.847656 126.839844 120.308594 127.378906 120.308594 128.046875 L 120.308594 135.542969 C 120.308594 136.210938 120.847656 136.75 121.519531 136.75 Z M 122.730469 129.253906 L 128.980469 129.253906 C 129.648438 129.253906 130.191406 128.710938 130.191406 128.046875 L 130.191406 121.757812 L 135.230469 121.757812 L 135.230469 128.046875 C 135.230469 128.710938 135.769531 129.253906 136.441406 129.253906 L 142.691406 129.253906 L 142.691406 134.335938 L 136.441406 134.335938 C 135.769531 134.335938 135.230469 134.875 135.230469 135.542969 L 135.230469 141.832031 L 130.191406 141.832031 L 130.191406 135.542969 C 130.191406 134.875 129.648438 134.335938 128.980469 134.335938 L 122.730469 134.335938 Z M 122.730469 129.253906 " fill-opacity="1" fill-rule="nonzero"/></svg>