<svg xmlns="http://www.w3.org/2000/svg" xmlns:xlink="http://www.w3.org/1999/xlink" width="354" zoomAndPan="magnify" viewBox="0 0 265.5 362.999992" height="484" preserveAspectRatio="xMidYMid meet" version="1.0"><defs><clipPath id="38e9aeb10c"><path d="M 75.265625 131.417969 L 189.800781 131.417969 L 189.800781 231.730469 L 75.265625 231.730469 Z M 75.265625 131.417969 " clip-rule="nonzero"/></clipPath></defs><g clip-path="url(#38e9aeb10c)"><path fill="#000000" d="M 172.578125 226.660156 C 161.15625 225.742188 146.605469 222.394531 137.375 216.824219 C 138.445312 216.242188 139.921875 215.398438 141.683594 214.273438 C 145.148438 212.070312 150.121094 208.523438 154.160156 204.15625 C 155.90625 202.265625 157.328125 200.128906 158.378906 197.800781 C 159.425781 195.480469 160.082031 193.023438 160.332031 190.5 C 160.414062 189.6875 160.464844 188.964844 160.480469 188.351562 C 160.546875 186.117188 160.132812 183.929688 159.257812 181.847656 C 158.421875 179.855469 157.203125 178.054688 155.640625 176.5 C 154.074219 174.945312 152.253906 173.71875 150.21875 172.855469 C 148.089844 171.949219 145.839844 171.492188 143.53125 171.492188 L 143.480469 171.492188 C 139.460938 171.503906 135.601562 172.882812 132.566406 175.382812 C 129.515625 172.871094 125.636719 171.492188 121.597656 171.492188 C 119.871094 171.492188 118.125 171.746094 116.417969 172.242188 C 113.824219 173 111.441406 174.386719 109.519531 176.253906 C 107.601562 178.113281 106.179688 180.425781 105.40625 182.933594 C 105.117188 183.875 104.90625 184.957031 104.789062 186.152344 C 104.101562 192.964844 106.5625 199.789062 111.535156 204.871094 C 115.609375 209.03125 120.488281 212.398438 123.867188 214.488281 C 125.46875 215.480469 126.824219 216.246094 127.84375 216.789062 C 118.617188 222.378906 104.027344 225.738281 92.585938 226.660156 L 92.585938 170.726562 L 96.933594 167.136719 L 102.964844 162.164062 L 132.839844 137.507812 L 159.054688 161.199219 L 160.121094 162.164062 L 165.625 167.136719 L 165.824219 167.320312 L 172.578125 173.421875 Z M 133.023438 213.164062 C 132.925781 213.171875 132.820312 213.183594 132.71875 213.195312 C 132.679688 213.199219 132.632812 213.207031 132.582031 213.210938 C 132.53125 213.207031 132.484375 213.199219 132.441406 213.195312 C 132.410156 213.191406 132.378906 213.1875 132.347656 213.183594 C 131.292969 212.695312 129.125 211.566406 126.457031 209.898438 C 123.429688 208.007812 119.0625 204.976562 115.453125 201.289062 C 111.546875 197.300781 109.617188 191.964844 110.152344 186.65625 C 110.238281 185.792969 110.378906 185.042969 110.570312 184.425781 C 111.640625 180.964844 114.40625 178.277344 117.976562 177.234375 C 119.179688 176.882812 120.398438 176.703125 121.597656 176.703125 C 125.53125 176.703125 129.160156 178.617188 131.308594 181.816406 C 131.585938 182.230469 132.054688 182.476562 132.566406 182.476562 C 133.078125 182.476562 133.546875 182.230469 133.828125 181.816406 C 135.964844 178.628906 139.578125 176.71875 143.492188 176.703125 L 143.53125 176.703125 C 146.578125 176.703125 149.585938 177.953125 151.777344 180.136719 C 153.96875 182.316406 155.175781 185.257812 155.09375 188.207031 C 155.078125 188.699219 155.035156 189.304688 154.964844 190.003906 C 154.578125 193.945312 152.863281 197.738281 150.144531 200.679688 C 146.574219 204.539062 142.140625 207.722656 139.046875 209.714844 C 136.328125 211.464844 134.113281 212.644531 133.023438 213.164062 Z M 132.664062 213.328125 C 132.621094 213.3125 132.578125 213.292969 132.527344 213.269531 C 132.542969 213.265625 132.5625 213.265625 132.578125 213.261719 C 132.636719 213.269531 132.695312 213.277344 132.753906 213.289062 C 132.722656 213.304688 132.691406 213.316406 132.664062 213.328125 Z M 188.6875 181.171875 L 177.722656 171.261719 L 169.335938 163.683594 C 169.34375 163.609375 169.34375 163.535156 169.34375 163.460938 L 169.34375 149.800781 C 169.34375 148.535156 168.285156 147.511719 166.980469 147.511719 L 161.421875 147.511719 C 160.113281 147.511719 159.054688 148.535156 159.054688 149.800781 L 159.054688 154.390625 L 134.671875 132.355469 C 133.71875 131.492188 132.242188 131.460938 131.25 132.28125 L 95.039062 162.164062 L 87.441406 168.433594 L 76.464844 177.488281 C 75.382812 178.382812 75.253906 179.953125 76.175781 180.996094 C 77.097656 182.042969 78.722656 182.164062 79.800781 181.273438 L 87.441406 174.96875 L 87.441406 229.199219 C 87.441406 230.570312 88.59375 231.6875 90.011719 231.6875 L 91.808594 231.6875 C 91.808594 231.6875 92.421875 231.664062 92.585938 231.648438 C 99.730469 231.105469 107.742188 229.65625 114.691406 227.640625 C 118.910156 226.414062 122.742188 224.992188 126.082031 223.410156 C 128.515625 222.257812 130.6875 221.019531 132.582031 219.707031 C 133.527344 220.363281 134.542969 221 135.628906 221.617188 C 136.710938 222.238281 137.863281 222.835938 139.078125 223.410156 C 142.417969 224.992188 146.25 226.414062 150.472656 227.640625 C 157.421875 229.65625 165.429688 231.105469 172.578125 231.648438 C 172.738281 231.664062 173.351562 231.6875 173.351562 231.6875 L 175.148438 231.6875 C 176.570312 231.6875 177.722656 230.570312 177.722656 229.199219 L 177.722656 178.070312 L 185.175781 184.804688 C 185.671875 185.253906 186.300781 185.476562 186.929688 185.476562 C 187.617188 185.476562 188.304688 185.210938 188.808594 184.6875 C 189.78125 183.683594 189.726562 182.109375 188.6875 181.171875 " fill-opacity="1" fill-rule="nonzero"/></g><path fill="#000000" d="M 138.292969 192.378906 L 135.152344 192.378906 L 135.152344 189.234375 C 135.152344 187.785156 133.976562 186.613281 132.53125 186.613281 C 131.085938 186.613281 129.914062 187.785156 129.914062 189.234375 L 129.914062 192.378906 L 126.773438 192.378906 C 125.324219 192.378906 124.152344 193.550781 124.152344 195 C 124.152344 196.445312 125.324219 197.617188 126.773438 197.617188 L 129.914062 197.617188 L 129.914062 200.761719 C 129.914062 202.210938 131.085938 203.382812 132.53125 203.382812 C 133.976562 203.382812 135.152344 202.210938 135.152344 200.761719 L 135.152344 197.617188 L 138.292969 197.617188 C 139.738281 197.617188 140.910156 196.445312 140.910156 195 C 140.910156 193.550781 139.738281 192.378906 138.292969 192.378906 " fill-opacity="1" fill-rule="nonzero"/></svg>