<svg xmlns="http://www.w3.org/2000/svg" xmlns:xlink="http://www.w3.org/1999/xlink" width="354" zoomAndPan="magnify" viewBox="0 0 265.5 362.999992" height="484" preserveAspectRatio="xMidYMid meet" version="1.0"><defs><clipPath id="d3c814c95a"><path d="M 79.5 133.222656 L 185.800781 133.222656 L 185.800781 229.789062 L 79.5 229.789062 Z M 79.5 133.222656 " clip-rule="nonzero"/></clipPath></defs><g clip-path="url(#d3c814c95a)"><path fill="#000000" d="M 184.945312 184.707031 C 184.90625 184.667969 173.140625 172.929688 171.550781 171.34375 L 171.550781 147.339844 C 171.550781 146.144531 170.578125 145.175781 169.382812 145.175781 L 158.640625 145.175781 C 157.441406 145.175781 156.46875 146.144531 156.46875 147.339844 L 156.46875 156.304688 L 134.1875 134.078125 C 133.332031 133.222656 131.953125 133.242188 131.117188 134.082031 C 129.59375 135.605469 83.15625 182.117188 80.351562 184.925781 C 79.507812 185.769531 79.507812 187.140625 80.359375 187.984375 C 81.207031 188.828125 82.582031 188.824219 83.425781 187.976562 L 88.972656 182.421875 L 88.972656 227.621094 C 88.972656 228.816406 89.945312 229.785156 91.140625 229.785156 L 121.070312 229.785156 C 122.265625 229.785156 123.238281 228.816406 123.238281 227.621094 L 123.238281 194.839844 L 142.0625 194.839844 L 142.0625 227.621094 C 142.0625 228.816406 143.035156 229.785156 144.230469 229.785156 L 174.15625 229.785156 C 175.355469 229.785156 176.328125 228.816406 176.328125 227.621094 L 176.328125 182.226562 L 181.878906 187.765625 C 182.726562 188.609375 184.097656 188.609375 184.945312 187.765625 C 185.792969 186.917969 185.792969 185.550781 184.945312 184.707031 Z M 146.402344 225.457031 L 146.402344 192.675781 C 146.402344 191.480469 145.429688 190.511719 144.230469 190.511719 L 121.070312 190.511719 C 119.871094 190.511719 118.898438 191.480469 118.898438 192.675781 L 118.898438 225.457031 L 93.3125 225.457031 L 93.3125 178.074219 L 132.65625 138.671875 L 171.988281 177.898438 L 171.988281 225.457031 Z M 146.402344 225.457031 " fill-opacity="1" fill-rule="nonzero"/></g></svg>