<svg xmlns="http://www.w3.org/2000/svg" xmlns:xlink="http://www.w3.org/1999/xlink" width="354" zoomAndPan="magnify" viewBox="0 0 265.5 362.999992" height="484" preserveAspectRatio="xMidYMid meet" version="1.0"><defs><clipPath id="b34e19dc1f"><path d="M 0 0.339844 L 265 0.339844 L 265 362.65625 L 0 362.65625 Z M 0 0.339844 " clip-rule="nonzero"/></clipPath><clipPath id="74ac60b37a"><path d="M 78.375 152.910156 L 186.921875 152.910156 L 186.921875 209.804688 L 78.375 209.804688 Z M 78.375 152.910156 " clip-rule="nonzero"/></clipPath><clipPath id="8018df1d50"><path d="M 78.390625 152.910156 L 186.902344 152.910156 L 186.902344 209.804688 L 78.390625 209.804688 Z M 78.390625 152.910156 " clip-rule="nonzero"/></clipPath><clipPath id="6694e47163"><path d="M 126 175 L 140 175 L 140 209.804688 L 126 209.804688 Z M 126 175 " clip-rule="nonzero"/></clipPath><clipPath id="538809e935"><path d="M 126.019531 175.125 L 139.335938 175.125 L 139.335938 209.804688 L 126.019531 209.804688 Z M 126.019531 175.125 " clip-rule="nonzero"/></clipPath></defs><g clip-path="url(#b34e19dc1f)"><path fill="#ffffff" d="M 0 0.339844 L 265 0.339844 L 265 362.660156 L 0 362.660156 Z M 0 0.339844 " fill-opacity="1" fill-rule="nonzero"/><path fill="#ffffff" d="M 0 0.339844 L 265 0.339844 L 265 362.660156 L 0 362.660156 Z M 0 0.339844 " fill-opacity="1" fill-rule="nonzero"/></g><g clip-path="url(#74ac60b37a)"><path fill="#272324" d="M 170.976562 168.714844 C 160.738281 158.554688 147.125 152.960938 132.644531 152.960938 C 118.21875 152.960938 104.648438 158.519531 94.425781 168.609375 C 94.414062 168.621094 94.40625 168.628906 94.394531 168.636719 C 94.390625 168.640625 94.386719 168.648438 94.378906 168.652344 C 94.359375 168.675781 94.335938 168.695312 94.316406 168.714844 C 84.078125 178.875 78.441406 192.382812 78.441406 206.75 C 78.441406 208.410156 79.796875 209.757812 81.472656 209.757812 L 92.609375 209.757812 C 94.28125 209.757812 95.640625 208.410156 95.640625 206.75 C 95.640625 205.089844 94.28125 203.742188 92.609375 203.742188 L 84.597656 203.742188 C 85.285156 192.789062 89.710938 182.828125 96.617188 175.09375 L 101.199219 179.640625 C 101.792969 180.226562 102.566406 180.519531 103.34375 180.519531 C 104.117188 180.519531 104.894531 180.226562 105.488281 179.636719 C 106.671875 178.464844 106.671875 176.558594 105.484375 175.382812 L 100.917969 170.851562 C 108.683594 164.085938 118.660156 159.753906 129.613281 159.074219 L 129.613281 165.355469 C 129.613281 167.015625 130.972656 168.363281 132.644531 168.363281 C 134.320312 168.363281 135.679688 167.015625 135.679688 165.355469 L 135.679688 159.074219 C 146.683594 159.757812 156.703125 164.125 164.484375 170.949219 L 160.011719 175.382812 C 158.828125 176.558594 158.828125 178.464844 160.011719 179.636719 C 160.601562 180.226562 161.378906 180.519531 162.15625 180.519531 C 162.929688 180.519531 163.707031 180.226562 164.296875 179.640625 L 168.769531 175.203125 C 175.621094 182.917969 180.007812 192.839844 180.695312 203.742188 L 172.664062 203.742188 C 170.992188 203.742188 169.632812 205.089844 169.632812 206.75 C 169.632812 208.410156 170.992188 209.757812 172.664062 209.757812 L 183.820312 209.757812 C 185.496094 209.757812 186.851562 208.410156 186.851562 206.75 C 186.851562 192.382812 181.214844 178.875 170.976562 168.714844 " fill-opacity="1" fill-rule="nonzero"/></g><g clip-path="url(#8018df1d50)"><path fill="#272324" d="M 172.664062 203.792969 C 171.019531 203.792969 169.683594 205.117188 169.683594 206.75 C 169.683594 208.382812 171.019531 209.710938 172.664062 209.710938 L 183.820312 209.710938 C 185.464844 209.710938 186.804688 208.382812 186.804688 206.75 C 186.804688 192.394531 181.167969 178.902344 170.941406 168.75 C 160.710938 158.601562 147.113281 153.011719 132.644531 153.011719 C 118.238281 153.011719 104.675781 158.5625 94.460938 168.644531 C 94.453125 168.652344 94.449219 168.65625 94.441406 168.660156 C 94.4375 168.664062 94.433594 168.667969 94.429688 168.671875 L 94.351562 168.75 C 84.121094 178.902344 78.488281 192.394531 78.488281 206.75 C 78.488281 208.382812 79.828125 209.710938 81.472656 209.710938 L 92.609375 209.710938 C 94.253906 209.710938 95.589844 208.382812 95.589844 206.75 C 95.589844 205.117188 94.253906 203.792969 92.609375 203.792969 L 84.546875 203.792969 L 84.546875 203.738281 C 84.886719 198.367188 86.125 193.136719 88.230469 188.191406 C 90.273438 183.398438 93.082031 178.980469 96.582031 175.0625 L 96.617188 175.023438 L 101.234375 179.605469 C 101.796875 180.164062 102.546875 180.472656 103.34375 180.472656 C 104.140625 180.472656 104.890625 180.164062 105.453125 179.605469 C 106.613281 178.449219 106.613281 176.574219 105.453125 175.417969 L 100.847656 170.851562 L 100.886719 170.816406 C 104.820312 167.386719 109.25 164.636719 114.050781 162.636719 C 119 160.574219 124.234375 159.359375 129.613281 159.027344 L 129.664062 159.023438 L 129.664062 165.355469 C 129.664062 166.988281 131 168.316406 132.644531 168.316406 C 134.289062 168.316406 135.628906 166.988281 135.628906 165.355469 L 135.628906 159.023438 L 135.679688 159.027344 C 141.082031 159.359375 146.339844 160.585938 151.308594 162.664062 C 156.132812 164.679688 160.574219 167.457031 164.515625 170.910156 L 164.554688 170.945312 L 160.046875 175.417969 C 158.882812 176.570312 158.882812 178.449219 160.046875 179.605469 C 160.609375 180.164062 161.359375 180.472656 162.15625 180.472656 C 162.953125 180.472656 163.699219 180.164062 164.265625 179.605469 L 168.773438 175.132812 L 168.808594 175.171875 C 172.277344 179.078125 175.066406 183.484375 177.089844 188.261719 C 179.179688 193.183594 180.40625 198.390625 180.746094 203.738281 L 180.75 203.792969 Z M 183.820312 209.808594 L 172.664062 209.808594 C 170.964844 209.808594 169.582031 208.4375 169.582031 206.75 C 169.582031 205.066406 170.964844 203.695312 172.664062 203.695312 L 180.640625 203.695312 C 179.964844 193.101562 175.859375 183.277344 168.769531 175.273438 L 164.332031 179.671875 C 163.753906 180.25 162.980469 180.570312 162.15625 180.570312 C 161.332031 180.570312 160.558594 180.25 159.976562 179.671875 C 158.777344 178.480469 158.777344 176.539062 159.976562 175.347656 L 164.414062 170.949219 C 156.339844 163.890625 146.421875 159.800781 135.726562 159.128906 L 135.726562 165.355469 C 135.726562 167.042969 134.34375 168.414062 132.644531 168.414062 C 130.945312 168.414062 129.566406 167.042969 129.566406 165.355469 L 129.566406 159.128906 C 118.921875 159.796875 109.042969 163.851562 100.988281 170.855469 L 105.519531 175.347656 C 106.722656 176.542969 106.722656 178.480469 105.523438 179.671875 C 104.941406 180.25 104.167969 180.570312 103.34375 180.570312 C 102.519531 180.570312 101.746094 180.25 101.164062 179.671875 L 96.621094 175.167969 C 89.570312 183.074219 85.320312 193.203125 84.648438 203.695312 L 92.609375 203.695312 C 94.308594 203.695312 95.6875 205.066406 95.6875 206.75 C 95.6875 208.4375 94.308594 209.808594 92.609375 209.808594 L 81.472656 209.808594 C 79.773438 209.808594 78.390625 208.4375 78.390625 206.75 C 78.390625 192.371094 84.035156 178.851562 94.28125 168.679688 L 94.34375 168.621094 C 94.355469 168.609375 94.359375 168.605469 94.359375 168.601562 C 94.367188 168.597656 94.371094 168.589844 94.378906 168.585938 L 94.390625 168.574219 C 104.625 158.476562 118.210938 152.914062 132.644531 152.914062 C 147.140625 152.914062 160.761719 158.511719 171.011719 168.679688 C 181.257812 178.851562 186.902344 192.371094 186.902344 206.75 C 186.902344 208.4375 185.519531 209.808594 183.820312 209.808594 " fill-opacity="1" fill-rule="nonzero"/></g><g clip-path="url(#6694e47163)"><path fill="#272324" d="M 132.644531 175.261719 C 132.222656 175.261719 131.855469 175.558594 131.769531 175.96875 L 126.097656 203.15625 C 126.097656 206.800781 129.03125 209.757812 132.644531 209.757812 C 136.261719 209.757812 139.195312 206.800781 139.195312 203.15625 L 133.523438 175.96875 C 133.4375 175.558594 133.070312 175.261719 132.644531 175.261719 " fill-opacity="1" fill-rule="nonzero"/></g><g clip-path="url(#538809e935)"><path fill="#272324" d="M 126.148438 203.160156 C 126.148438 206.773438 129.0625 209.710938 132.644531 209.710938 C 136.226562 209.710938 139.140625 206.773438 139.144531 203.160156 L 133.472656 175.980469 C 133.390625 175.59375 133.042969 175.3125 132.644531 175.3125 C 132.25 175.3125 131.898438 175.59375 131.820312 175.980469 Z M 132.644531 209.808594 C 129.007812 209.808594 126.046875 206.824219 126.046875 203.15625 L 126.050781 203.144531 L 131.722656 175.960938 C 131.8125 175.527344 132.203125 175.214844 132.644531 175.214844 C 133.089844 175.214844 133.480469 175.527344 133.570312 175.960938 L 139.242188 203.148438 L 139.242188 203.15625 C 139.242188 206.824219 136.285156 209.808594 132.644531 209.808594 " fill-opacity="1" fill-rule="nonzero"/></g></svg>