<svg width="58" height="59" viewBox="0 0 58 59" fill="none" xmlns="http://www.w3.org/2000/svg">
<circle cx="29.1113" cy="29.63" r="28.6484" fill="#0F00AB" fill-opacity="0.1"/>
<path d="M28.5824 14.861C29.5705 14.861 30.3714 14.06 30.3714 13.072C30.3714 12.084 29.5705 11.283 28.5824 11.283C27.5944 11.283 26.7935 12.084 26.7935 13.072C26.7935 14.06 27.5944 14.861 28.5824 14.861Z" stroke="#0F00AB" stroke-width="0.467099" stroke-miterlimit="10"/>
<path d="M18.8142 21.9627C19.3337 21.1223 19.0735 20.0198 18.233 19.5004C17.3926 18.9809 16.2901 19.2411 15.7707 20.0815C15.2512 20.922 15.5114 22.0244 16.3518 22.5439C17.1923 23.0634 18.2947 22.8032 18.8142 21.9627Z" stroke="#0F00AB" stroke-width="0.467099" stroke-miterlimit="10"/>
<path d="M18.7114 17.6433C20.0629 19.9664 22.0652 21.7414 24.9394 22.7845C24.9394 22.7845 25.4953 20.7433 23.7997 18.836C22.1041 16.9287 18.7114 17.6433 18.7114 17.6433Z" stroke="#0F00AB" stroke-width="0.467099" stroke-miterlimit="10"/>
<path d="M31.9335 12.8509C30.227 14.9264 29.2617 17.4222 29.2866 20.4802C29.2866 20.4802 31.3932 20.2902 32.5905 18.0357C33.7879 15.7812 31.9335 12.8509 31.9335 12.8509Z" stroke="#0F00AB" stroke-width="0.467099" stroke-miterlimit="10"/>
<path d="M40.7873 24.7931C38.3356 23.6937 35.6735 23.4199 32.7302 24.2496C32.7302 24.2496 33.4684 26.2317 35.9587 26.7928C38.449 27.3539 40.7873 24.7931 40.7873 24.7931Z" stroke="#0F00AB" stroke-width="0.467099" stroke-miterlimit="10"/>
<path d="M39.4584 22.9761C40.4465 22.9761 41.2474 22.1751 41.2474 21.1871C41.2474 20.199 40.4465 19.3981 39.4584 19.3981C38.4704 19.3981 37.6694 20.199 37.6694 21.1871C37.6694 22.1751 38.4704 22.9761 39.4584 22.9761Z" stroke="#0F00AB" stroke-width="0.467099" stroke-miterlimit="10"/>
<path d="M35.1498 35.8633C36.1379 35.8633 36.9388 35.0623 36.9388 34.0743C36.9388 33.0863 36.1379 32.2853 35.1498 32.2853C34.1618 32.2853 33.3608 33.0863 33.3608 34.0743C33.3608 35.0623 34.1618 35.8633 35.1498 35.8633Z" stroke="#0F00AB" stroke-width="0.467099" stroke-miterlimit="10"/>
<path d="M32.5543 36.2027C32.7333 33.5216 32.0669 30.9292 30.2686 28.4567C30.2686 28.4567 28.6665 29.8362 29.0043 32.3679C29.3422 34.898 32.5543 36.2027 32.5543 36.2027Z" stroke="#0F00AB" stroke-width="0.467099" stroke-miterlimit="10"/>
<path d="M18.6767 31.7843C21.319 31.2956 23.6665 30.0096 25.6182 27.6563C25.6182 27.6563 23.8858 26.4445 21.516 27.3972C19.1477 28.3495 18.6767 31.7843 18.6767 31.7843Z" stroke="#0F00AB" stroke-width="0.467099" stroke-miterlimit="10"/>
<path d="M38.2715 31.7809C35.6386 31.2453 33.3156 29.9172 31.4067 27.5272C31.4067 27.5272 33.1615 26.347 35.5125 27.3419C37.8636 28.3368 38.2715 31.7809 38.2715 31.7809Z" stroke="#0F00AB" stroke-width="0.467099" stroke-miterlimit="10"/>
<path d="M24.3738 36.2324C24.2425 33.5488 24.9557 30.9697 26.8002 28.5297C26.8002 28.5297 28.3773 29.9385 27.9938 32.4625C27.6104 34.9865 24.3738 36.2324 24.3738 36.2324Z" stroke="#0F00AB" stroke-width="0.467099" stroke-miterlimit="10"/>
<path d="M16.3838 24.4927C18.8839 23.5085 21.5555 23.3579 24.4579 24.3234C24.4579 24.3234 23.6285 26.2687 21.1148 26.7141C18.601 27.1595 16.3838 24.4927 16.3838 24.4927Z" stroke="#0F00AB" stroke-width="0.467099" stroke-miterlimit="10"/>
<path d="M24.6745 13.2103C26.5687 15.1157 27.7658 17.5089 28.0294 20.5563C28.0294 20.5563 25.9147 20.5657 24.5096 18.4342C23.1046 16.3027 24.6745 13.2103 24.6745 13.2103Z" stroke="#0F00AB" stroke-width="0.467099" stroke-miterlimit="10"/>
<path d="M38.3784 17.77C37.0505 20.1057 35.0657 21.9005 32.2006 22.9714C32.2006 22.9714 31.6247 20.9367 33.3015 19.0116C34.9782 17.0866 38.3784 17.77 38.3784 17.77Z" stroke="#0F00AB" stroke-width="0.467099" stroke-miterlimit="10"/>
<path d="M21.582 35.5908C22.57 35.5908 23.3709 34.7899 23.3709 33.8018C23.3709 32.8138 22.57 32.0128 21.582 32.0128C20.5939 32.0128 19.793 32.8138 19.793 33.8018C19.793 34.7899 20.5939 35.5908 21.582 35.5908Z" stroke="#0F00AB" stroke-width="0.467099" stroke-miterlimit="10"/>
<mask id="path-17-inside-1_97_178" fill="white">
<path d="M16.3385 39.1914V38.5143H21.0661V39.1914H19.084V44.8177H18.3207V39.1914H16.3385ZM27.3003 41.666C27.3003 42.3308 27.1803 42.9054 26.9402 43.3896C26.7001 43.8739 26.3708 44.2473 25.9522 44.51C25.5336 44.7726 25.0555 44.9039 24.5179 44.9039C23.9803 44.9039 23.5022 44.7726 23.0837 44.51C22.6651 44.2473 22.3357 43.8739 22.0957 43.3896C21.8556 42.9054 21.7356 42.3308 21.7356 41.666C21.7356 41.0012 21.8556 40.4267 22.0957 39.9424C22.3357 39.4582 22.6651 39.0847 23.0837 38.8221C23.5022 38.5594 23.9803 38.4281 24.5179 38.4281C25.0555 38.4281 25.5336 38.5594 25.9522 38.8221C26.3708 39.0847 26.7001 39.4582 26.9402 39.9424C27.1803 40.4267 27.3003 41.0012 27.3003 41.666ZM26.5616 41.666C26.5616 41.1202 26.4703 40.6596 26.2877 40.2841C26.1071 39.9086 25.8619 39.6244 25.5521 39.4315C25.2443 39.2386 24.8996 39.1422 24.5179 39.1422C24.1363 39.1422 23.7905 39.2386 23.4807 39.4315C23.1729 39.6244 22.9277 39.9086 22.7451 40.2841C22.5645 40.6596 22.4742 41.1202 22.4742 41.666C22.4742 42.2118 22.5645 42.6725 22.7451 43.048C22.9277 43.4235 23.1729 43.7077 23.4807 43.9005C23.7905 44.0934 24.1363 44.1899 24.5179 44.1899C24.8996 44.1899 25.2443 44.0934 25.5521 43.9005C25.8619 43.7077 26.1071 43.4235 26.2877 43.048C26.4703 42.6725 26.5616 42.2118 26.5616 41.666ZM28.5838 38.5143H29.4949L31.637 43.7467H31.7109L33.8531 38.5143H34.7642V44.8177H34.0501V40.0286H33.9885L32.0187 44.8177H31.3293L29.3594 40.0286H29.2979V44.8177H28.5838V38.5143ZM35.7529 38.5143H36.627L38.3753 41.4567H38.4491L40.1974 38.5143H41.0715L38.7939 42.22V44.8177H38.0305V42.22L35.7529 38.5143Z"/>
</mask>
<path d="M16.3385 39.1914V38.5143H21.0661V39.1914H19.084V44.8177H18.3207V39.1914H16.3385ZM27.3003 41.666C27.3003 42.3308 27.1803 42.9054 26.9402 43.3896C26.7001 43.8739 26.3708 44.2473 25.9522 44.51C25.5336 44.7726 25.0555 44.9039 24.5179 44.9039C23.9803 44.9039 23.5022 44.7726 23.0837 44.51C22.6651 44.2473 22.3357 43.8739 22.0957 43.3896C21.8556 42.9054 21.7356 42.3308 21.7356 41.666C21.7356 41.0012 21.8556 40.4267 22.0957 39.9424C22.3357 39.4582 22.6651 39.0847 23.0837 38.8221C23.5022 38.5594 23.9803 38.4281 24.5179 38.4281C25.0555 38.4281 25.5336 38.5594 25.9522 38.8221C26.3708 39.0847 26.7001 39.4582 26.9402 39.9424C27.1803 40.4267 27.3003 41.0012 27.3003 41.666ZM26.5616 41.666C26.5616 41.1202 26.4703 40.6596 26.2877 40.2841C26.1071 39.9086 25.8619 39.6244 25.5521 39.4315C25.2443 39.2386 24.8996 39.1422 24.5179 39.1422C24.1363 39.1422 23.7905 39.2386 23.4807 39.4315C23.1729 39.6244 22.9277 39.9086 22.7451 40.2841C22.5645 40.6596 22.4742 41.1202 22.4742 41.666C22.4742 42.2118 22.5645 42.6725 22.7451 43.048C22.9277 43.4235 23.1729 43.7077 23.4807 43.9005C23.7905 44.0934 24.1363 44.1899 24.5179 44.1899C24.8996 44.1899 25.2443 44.0934 25.5521 43.9005C25.8619 43.7077 26.1071 43.4235 26.2877 43.048C26.4703 42.6725 26.5616 42.2118 26.5616 41.666ZM28.5838 38.5143H29.4949L31.637 43.7467H31.7109L33.8531 38.5143H34.7642V44.8177H34.0501V40.0286H33.9885L32.0187 44.8177H31.3293L29.3594 40.0286H29.2979V44.8177H28.5838V38.5143ZM35.7529 38.5143H36.627L38.3753 41.4567H38.4491L40.1974 38.5143H41.0715L38.7939 42.22V44.8177H38.0305V42.22L35.7529 38.5143Z" fill="#231F20"/>
<path d="M16.3385 39.1914H14.1717V41.3582H16.3385V39.1914ZM16.3385 38.5143V36.3475H14.1717V38.5143H16.3385ZM21.0661 38.5143H23.2329V36.3475H21.0661V38.5143ZM21.0661 39.1914V41.3582H23.2329V39.1914H21.0661ZM19.084 39.1914V37.0246H16.9172V39.1914H19.084ZM19.084 44.8177V46.9846H21.2508V44.8177H19.084ZM18.3207 44.8177H16.1538V46.9846H18.3207V44.8177ZM18.3207 39.1914H20.4875V37.0246H18.3207V39.1914ZM18.5053 39.1914V38.5143H14.1717V39.1914H18.5053ZM16.3385 40.6811H21.0661V36.3475H16.3385V40.6811ZM18.8993 38.5143V39.1914H23.2329V38.5143H18.8993ZM21.0661 37.0246H19.084V41.3582H21.0661V37.0246ZM16.9172 39.1914V44.8177H21.2508V39.1914H16.9172ZM19.084 42.6509H18.3207V46.9846H19.084V42.6509ZM20.4875 44.8177V39.1914H16.1538V44.8177H20.4875ZM18.3207 37.0246H16.3385V41.3582H18.3207V37.0246ZM26.9402 43.3896L24.9989 42.4272L24.9989 42.4272L26.9402 43.3896ZM25.9522 44.51L27.1039 46.3454H27.1039L25.9522 44.51ZM23.0837 44.51L21.932 46.3454H21.932L23.0837 44.51ZM22.0957 43.3896L24.037 42.4272L22.0957 43.3896ZM25.9522 38.8221L27.1039 36.9866L27.1039 36.9866L25.9522 38.8221ZM26.9402 39.9424L24.9989 40.9049L24.9989 40.9049L26.9402 39.9424ZM26.2877 40.2841L24.3349 41.2231L24.3391 41.2317L26.2877 40.2841ZM25.5521 39.4315L24.4015 41.2676L24.407 41.271L25.5521 39.4315ZM23.4807 39.4315L22.3356 37.592L22.3301 37.5954L23.4807 39.4315ZM22.7451 40.2841L20.7965 39.3364L20.7923 39.345L22.7451 40.2841ZM22.7451 43.048L20.7923 43.987L20.7965 43.9957L22.7451 43.048ZM23.4807 43.9005L22.3301 45.7366L22.3356 45.7401L23.4807 43.9005ZM25.5521 43.9005L24.407 42.061L24.4015 42.0645L25.5521 43.9005ZM26.2877 43.048L24.3391 42.1003L24.3349 42.1089L26.2877 43.048ZM25.1335 41.666C25.1335 42.0723 25.0604 42.303 24.9989 42.4272L28.8816 44.3521C29.3001 43.5077 29.4672 42.5894 29.4672 41.666H25.1335ZM24.9989 42.4272C24.9192 42.5879 24.849 42.6441 24.8006 42.6745L27.1039 46.3454C27.8926 45.8505 28.4811 45.1599 28.8816 44.3521L24.9989 42.4272ZM24.8006 42.6745C24.7573 42.7017 24.6853 42.7371 24.5179 42.7371V47.0707C25.4258 47.0707 26.31 46.8435 27.1039 46.3454L24.8006 42.6745ZM24.5179 42.7371C24.3506 42.7371 24.2786 42.7017 24.2353 42.6745L21.932 46.3454C22.7259 46.8435 23.6101 47.0707 24.5179 47.0707V42.7371ZM24.2353 42.6745C24.1869 42.6441 24.1167 42.5879 24.037 42.4272L20.1543 44.3521C20.5548 45.1599 21.1433 45.8505 21.932 46.3454L24.2353 42.6745ZM24.037 42.4272C23.9754 42.303 23.9024 42.0723 23.9024 41.666H19.5687C19.5687 42.5894 19.7357 43.5077 20.1543 44.3521L24.037 42.4272ZM23.9024 41.666C23.9024 41.2597 23.9754 41.029 24.037 40.9049L20.1543 38.98C19.7357 39.8243 19.5687 40.7427 19.5687 41.666H23.9024ZM24.037 40.9049C24.1167 40.7441 24.1869 40.6879 24.2353 40.6575L21.932 36.9866C21.1433 37.4815 20.5548 38.1722 20.1543 38.98L24.037 40.9049ZM24.2353 40.6575C24.2786 40.6303 24.3506 40.5949 24.5179 40.5949V36.2613C23.6101 36.2613 22.7259 36.4885 21.932 36.9866L24.2353 40.6575ZM24.5179 40.5949C24.6853 40.5949 24.7573 40.6303 24.8006 40.6575L27.1039 36.9866C26.31 36.4885 25.4258 36.2613 24.5179 36.2613V40.5949ZM24.8006 40.6575C24.849 40.6879 24.9192 40.7441 24.9989 40.9049L28.8816 38.98C28.4811 38.1722 27.8926 37.4815 27.1039 36.9866L24.8006 40.6575ZM24.9989 40.9049C25.0604 41.029 25.1335 41.2597 25.1335 41.666H29.4672C29.4672 40.7427 29.3001 39.8243 28.8816 38.98L24.9989 40.9049ZM28.7285 41.666C28.7285 40.8888 28.5996 40.0834 28.2363 39.3364L24.3391 41.2317C24.341 41.2357 24.3948 41.3517 24.3948 41.666H28.7285ZM28.2405 39.345C27.9075 38.6526 27.4038 38.0318 26.6972 37.592L24.407 41.271C24.3902 41.2606 24.3743 41.2488 24.36 41.2365C24.3457 41.2242 24.335 41.2131 24.3278 41.2048C24.313 41.1876 24.3183 41.1886 24.3349 41.2231L28.2405 39.345ZM26.7027 37.5954C26.0322 37.1752 25.2849 36.9753 24.5179 36.9753V41.309C24.5245 41.309 24.5088 41.3095 24.4789 41.3012C24.4484 41.2926 24.4209 41.2797 24.4015 41.2676L26.7027 37.5954ZM24.5179 36.9753C23.7509 36.9753 23.0052 37.1751 22.3356 37.592L24.6258 41.271C24.6088 41.2816 24.5835 41.2936 24.5546 41.3016C24.5263 41.3095 24.5115 41.309 24.5179 41.309V36.9753ZM22.3301 37.5954C21.6293 38.0345 21.1295 38.6516 20.7965 39.3364L24.6937 41.2317C24.7121 41.1939 24.7193 41.19 24.7065 41.2048C24.7003 41.212 24.6906 41.2222 24.677 41.2339C24.6634 41.2457 24.648 41.2571 24.6313 41.2676L22.3301 37.5954ZM20.7923 39.345C20.4342 40.0897 20.3074 40.8918 20.3074 41.666H24.6411C24.6411 41.3486 24.6948 41.2294 24.6979 41.2231L20.7923 39.345ZM20.3074 41.666C20.3074 42.4403 20.4342 43.2424 20.7923 43.987L24.6979 42.1089C24.6948 42.1026 24.6411 41.9834 24.6411 41.666H20.3074ZM20.7965 43.9957C21.1295 44.6804 21.6293 45.2975 22.3301 45.7366L24.6313 42.0645C24.648 42.0749 24.6634 42.0864 24.677 42.0981C24.6906 42.1098 24.7003 42.1201 24.7065 42.1272C24.7193 42.142 24.7121 42.1381 24.6937 42.1003L20.7965 43.9957ZM22.3356 45.7401C23.0052 46.1569 23.7509 46.3567 24.5179 46.3567V42.023C24.5115 42.023 24.5263 42.0225 24.5546 42.0304C24.5835 42.0385 24.6088 42.0504 24.6258 42.061L22.3356 45.7401ZM24.5179 46.3567C25.2849 46.3567 26.0322 46.1568 26.7027 45.7366L24.4015 42.0645C24.4209 42.0523 24.4484 42.0394 24.4789 42.0308C24.5088 42.0225 24.5245 42.023 24.5179 42.023V46.3567ZM26.6972 45.7401C27.4038 45.3002 27.9075 44.6794 28.2405 43.987L24.3349 42.1089C24.3183 42.1435 24.313 42.1444 24.3278 42.1272C24.335 42.1189 24.3457 42.1078 24.36 42.0955C24.3743 42.0832 24.3902 42.0715 24.407 42.061L26.6972 45.7401ZM28.2363 43.9957C28.5996 43.2486 28.7285 42.4433 28.7285 41.666H24.3948C24.3948 41.9804 24.341 42.0963 24.3391 42.1003L28.2363 43.9957ZM28.5838 38.5143V36.3475H26.417V38.5143H28.5838ZM29.4949 38.5143L31.5001 37.6933L30.9491 36.3475H29.4949V38.5143ZM31.637 43.7467L29.6318 44.5676L30.1828 45.9135H31.637V43.7467ZM31.7109 43.7467V45.9135H33.1652L33.7162 44.5676L31.7109 43.7467ZM33.8531 38.5143V36.3475H32.3988L31.8478 37.6933L33.8531 38.5143ZM34.7642 38.5143H36.931V36.3475H34.7642V38.5143ZM34.7642 44.8177V46.9846H36.931V44.8177H34.7642ZM34.0501 44.8177H31.8833V46.9846H34.0501V44.8177ZM34.0501 40.0286H36.2169V37.8618H34.0501V40.0286ZM33.9885 40.0286V37.8618H32.5368L31.9846 39.2044L33.9885 40.0286ZM32.0187 44.8177V46.9846H33.4704L34.0226 45.642L32.0187 44.8177ZM31.3293 44.8177L29.3253 45.642L29.8775 46.9846H31.3293V44.8177ZM29.3594 40.0286L31.3634 39.2044L30.8111 37.8618H29.3594V40.0286ZM29.2979 40.0286V37.8618H27.1311V40.0286H29.2979ZM29.2979 44.8177V46.9846H31.4647V44.8177H29.2979ZM28.5838 44.8177H26.417V46.9846H28.5838V44.8177ZM28.5838 40.6811H29.4949V36.3475H28.5838V40.6811ZM27.4896 39.3353L29.6318 44.5676L33.6423 42.9257L31.5001 37.6933L27.4896 39.3353ZM31.637 45.9135H31.7109V41.5798H31.637V45.9135ZM33.7162 44.5676L35.8584 39.3353L31.8478 37.6933L29.7056 42.9257L33.7162 44.5676ZM33.8531 40.6811H34.7642V36.3475H33.8531V40.6811ZM32.5973 38.5143V44.8177H36.931V38.5143H32.5973ZM34.7642 42.6509H34.0501V46.9846H34.7642V42.6509ZM36.2169 44.8177V40.0286H31.8833V44.8177H36.2169ZM34.0501 37.8618H33.9885V42.1954H34.0501V37.8618ZM31.9846 39.2044L30.0148 43.9935L34.0226 45.642L35.9925 40.8528L31.9846 39.2044ZM32.0187 42.6509H31.3293V46.9846H32.0187V42.6509ZM33.3332 43.9935L31.3634 39.2044L27.3555 40.8528L29.3253 45.642L33.3332 43.9935ZM29.3594 37.8618H29.2979V42.1954H29.3594V37.8618ZM27.1311 40.0286V44.8177H31.4647V40.0286H27.1311ZM29.2979 42.6509H28.5838V46.9846H29.2979V42.6509ZM30.7506 44.8177V38.5143H26.417V44.8177H30.7506ZM35.7529 38.5143V36.3475H31.8778L33.9069 39.6489L35.7529 38.5143ZM36.627 38.5143L38.4899 37.4075L37.8601 36.3475H36.627V38.5143ZM38.3753 41.4567L36.5124 42.5635L37.1422 43.6235H38.3753V41.4567ZM38.4491 41.4567V43.6235H39.6822L40.312 42.5635L38.4491 41.4567ZM40.1974 38.5143V36.3475H38.9643L38.3345 37.4075L40.1974 38.5143ZM41.0715 38.5143L42.9175 39.6489L44.9466 36.3475H41.0715V38.5143ZM38.7939 42.22L36.9478 41.0854L36.627 41.6074V42.22H38.7939ZM38.7939 44.8177V46.9846H40.9607V44.8177H38.7939ZM38.0305 44.8177H35.8637V46.9846H38.0305V44.8177ZM38.0305 42.22H40.1974V41.6074L39.8766 41.0854L38.0305 42.22ZM35.7529 40.6811H36.627V36.3475H35.7529V40.6811ZM34.7642 39.6211L36.5124 42.5635L40.2381 40.3499L38.4899 37.4075L34.7642 39.6211ZM38.3753 43.6235H38.4491V39.2899H38.3753V43.6235ZM40.312 42.5635L42.0602 39.6211L38.3345 37.4075L36.5863 40.3499L40.312 42.5635ZM40.1974 40.6811H41.0715V36.3475H40.1974V40.6811ZM39.2255 37.3797L36.9478 41.0854L40.6399 43.3546L42.9175 39.6489L39.2255 37.3797ZM36.627 42.22V44.8177H40.9607V42.22H36.627ZM38.7939 42.6509H38.0305V46.9846H38.7939V42.6509ZM40.1974 44.8177V42.22H35.8637V44.8177H40.1974ZM39.8766 41.0854L37.5989 37.3797L33.9069 39.6489L36.1845 43.3546L39.8766 41.0854Z" fill="#0F00AB" mask="url(#path-17-inside-1_97_178)"/>
</svg>
