<svg xmlns="http://www.w3.org/2000/svg" xmlns:xlink="http://www.w3.org/1999/xlink" width="354" zoomAndPan="magnify" viewBox="0 0 265.5 362.999992" height="484" preserveAspectRatio="xMidYMid meet" version="1.0"><defs><clipPath id="791b3a4e54"><path d="M 113 133.535156 L 152 133.535156 L 152 172 L 113 172 Z M 113 133.535156 " clip-rule="nonzero"/></clipPath><clipPath id="7c8435af2a"><path d="M 79.5 173 L 185.800781 173 L 185.800781 229.355469 L 79.5 229.355469 Z M 79.5 173 " clip-rule="nonzero"/></clipPath></defs><g clip-path="url(#791b3a4e54)"><path fill="#000000" d="M 132.648438 171.363281 C 143.117188 171.363281 151.632812 162.882812 151.632812 152.453125 C 151.632812 142.027344 143.117188 133.546875 132.648438 133.546875 C 122.183594 133.546875 113.667969 142.027344 113.667969 152.457031 C 113.667969 162.882812 122.183594 171.363281 132.648438 171.363281 Z M 132.648438 138.589844 C 140.324219 138.589844 146.570312 144.808594 146.570312 152.457031 C 146.570312 160.101562 140.324219 166.320312 132.648438 166.320312 C 124.976562 166.320312 118.730469 160.101562 118.730469 152.457031 C 118.730469 144.808594 124.976562 138.589844 132.648438 138.589844 Z M 132.648438 138.589844 " fill-opacity="1" fill-rule="nonzero"/></g><path fill="#000000" d="M 163.023438 178.925781 C 170 178.925781 175.675781 173.269531 175.675781 166.320312 C 175.675781 159.371094 170 153.714844 163.023438 153.714844 C 156.042969 153.714844 150.367188 159.371094 150.367188 166.320312 C 150.367188 173.269531 156.042969 178.925781 163.023438 178.925781 Z M 163.023438 158.757812 C 167.207031 158.757812 170.613281 162.148438 170.613281 166.320312 C 170.613281 170.488281 167.207031 173.882812 163.023438 173.882812 C 158.835938 173.882812 155.429688 170.488281 155.429688 166.320312 C 155.429688 162.148438 158.835938 158.757812 163.023438 158.757812 Z M 163.023438 158.757812 " fill-opacity="1" fill-rule="nonzero"/><path fill="#000000" d="M 102.277344 178.925781 C 109.253906 178.925781 114.933594 173.269531 114.933594 166.320312 C 114.933594 159.371094 109.257812 153.714844 102.277344 153.714844 C 95.300781 153.714844 89.625 159.371094 89.625 166.320312 C 89.625 173.269531 95.300781 178.925781 102.277344 178.925781 Z M 102.277344 158.757812 C 106.464844 158.757812 109.871094 162.148438 109.871094 166.320312 C 109.871094 170.488281 106.464844 173.882812 102.277344 173.882812 C 98.09375 173.882812 94.6875 170.492188 94.6875 166.320312 C 94.6875 162.152344 98.09375 158.757812 102.277344 158.757812 Z M 102.277344 158.757812 " fill-opacity="1" fill-rule="nonzero"/><g clip-path="url(#7c8435af2a)"><path fill="#000000" d="M 179.128906 188.933594 C 174.828125 184.648438 169.109375 182.285156 163.019531 182.285156 C 160.578125 182.285156 158.1875 182.691406 155.882812 183.453125 C 149.675781 177.28125 141.425781 173.882812 132.648438 173.882812 C 123.875 173.882812 115.628906 177.28125 109.417969 183.453125 C 107.113281 182.691406 104.722656 182.285156 102.277344 182.285156 C 96.191406 182.285156 90.472656 184.644531 86.171875 188.933594 C 81.867188 193.214844 79.5 198.914062 79.5 204.972656 L 79.5 226.824219 C 79.5 228.214844 80.632812 229.34375 82.03125 229.34375 L 183.269531 229.34375 C 184.667969 229.34375 185.800781 228.214844 185.800781 226.824219 L 185.800781 204.972656 C 185.800781 198.914062 183.433594 193.214844 179.128906 188.933594 Z M 99.746094 224.300781 L 84.5625 224.300781 L 84.5625 204.972656 C 84.5625 200.261719 86.402344 195.832031 89.75 192.496094 C 93.097656 189.164062 97.546875 187.328125 102.277344 187.328125 C 103.492188 187.328125 104.6875 187.457031 105.859375 187.699219 C 101.949219 193.207031 99.75 199.867188 99.75 206.65625 L 99.75 224.300781 Z M 160.492188 224.300781 L 104.808594 224.300781 L 104.808594 206.65625 C 104.808594 199.351562 107.78125 192.207031 112.964844 187.046875 C 118.222656 181.808594 125.214844 178.925781 132.648438 178.925781 C 140.085938 178.925781 147.078125 181.808594 152.335938 187.046875 C 157.519531 192.207031 160.492188 199.351562 160.492188 206.65625 Z M 180.738281 224.300781 L 165.554688 224.300781 L 165.554688 206.65625 C 165.554688 199.867188 163.351562 193.207031 159.441406 187.699219 C 160.613281 187.457031 161.808594 187.328125 163.023438 187.328125 C 167.753906 187.328125 172.203125 189.164062 175.550781 192.496094 C 178.898438 195.832031 180.738281 200.261719 180.738281 204.972656 Z M 180.738281 224.300781 " fill-opacity="1" fill-rule="nonzero"/></g></svg>