<svg xmlns="http://www.w3.org/2000/svg" xmlns:xlink="http://www.w3.org/1999/xlink" width="354" zoomAndPan="magnify" viewBox="0 0 265.5 362.999992" height="484" preserveAspectRatio="xMidYMid meet" version="1.0"><defs><clipPath id="412fb58967"><path d="M 0 0.339844 L 265 0.339844 L 265 362.65625 L 0 362.65625 Z M 0 0.339844 " clip-rule="nonzero"/></clipPath><clipPath id="7a69660c07"><path d="M 162 186 L 196.511719 186 L 196.511719 211 L 162 211 Z M 162 186 " clip-rule="nonzero"/></clipPath><clipPath id="bb7fbe4b64"><path d="M 68.503906 185 L 103 185 L 103 211 L 68.503906 211 Z M 68.503906 185 " clip-rule="nonzero"/></clipPath><clipPath id="75717d0254"><path d="M 114 147.261719 L 151 147.261719 L 151 184 L 114 184 Z M 114 147.261719 " clip-rule="nonzero"/></clipPath><clipPath id="6810215a31"><path d="M 105 185 L 160 185 L 160 215.382812 L 105 215.382812 Z M 105 185 " clip-rule="nonzero"/></clipPath></defs><g clip-path="url(#412fb58967)"><path fill="#ffffff" d="M 0 0.339844 L 265 0.339844 L 265 362.660156 L 0 362.660156 Z M 0 0.339844 " fill-opacity="1" fill-rule="nonzero"/><path fill="#ffffff" d="M 0 0.339844 L 265 0.339844 L 265 362.660156 L 0 362.660156 Z M 0 0.339844 " fill-opacity="1" fill-rule="nonzero"/></g><path fill="#333333" d="M 173.46875 183.59375 C 164.566406 183.59375 157.496094 176.558594 157.496094 167.703125 C 157.496094 158.851562 164.566406 151.816406 173.46875 151.816406 C 182.367188 151.816406 189.441406 158.851562 189.441406 167.703125 C 189.441406 176.558594 182.367188 183.59375 173.46875 183.59375 Z M 173.46875 156.355469 C 167.078125 156.355469 162.058594 161.351562 162.058594 167.703125 C 162.058594 174.058594 167.078125 179.054688 173.46875 179.054688 C 179.855469 179.054688 184.875 174.058594 184.875 167.703125 C 184.875 161.351562 179.855469 156.355469 173.46875 156.355469 Z M 173.46875 156.355469 " fill-opacity="1" fill-rule="nonzero"/><g clip-path="url(#7a69660c07)"><path fill="#333333" d="M 196.285156 210.828125 L 169.132812 210.828125 C 167.761719 210.828125 166.851562 209.921875 166.851562 208.558594 C 166.851562 207.199219 167.761719 206.289062 169.132812 206.289062 L 191.722656 206.289062 C 190.582031 197.4375 182.824219 190.402344 173.695312 190.402344 C 170.730469 190.402344 167.992188 191.082031 165.480469 192.445312 C 164.339844 192.898438 162.972656 192.671875 162.515625 191.535156 C 162.058594 190.402344 162.285156 189.039062 163.425781 188.585938 C 166.621094 186.996094 170.042969 186.089844 173.695312 186.089844 C 186.246094 186.089844 196.511719 196.304688 196.511719 208.785156 L 196.511719 210.828125 Z M 196.285156 210.828125 " fill-opacity="1" fill-rule="nonzero"/></g><path fill="#333333" d="M 91.324219 183.59375 C 82.421875 183.59375 75.351562 176.558594 75.351562 167.703125 C 75.351562 158.851562 82.421875 151.816406 91.324219 151.816406 C 100.222656 151.816406 107.296875 158.851562 107.296875 167.703125 C 107.296875 176.558594 100.222656 183.59375 91.324219 183.59375 Z M 91.324219 156.355469 C 84.933594 156.355469 79.914062 161.351562 79.914062 167.703125 C 79.914062 174.058594 84.933594 179.054688 91.324219 179.054688 C 97.710938 179.054688 102.730469 174.058594 102.730469 167.703125 C 102.730469 161.351562 97.710938 156.355469 91.324219 156.355469 Z M 91.324219 156.355469 " fill-opacity="1" fill-rule="nonzero"/><g clip-path="url(#bb7fbe4b64)"><path fill="#333333" d="M 95.65625 210.828125 L 68.503906 210.828125 L 68.503906 208.558594 C 68.503906 196.074219 78.773438 185.863281 91.324219 185.863281 C 94.972656 185.863281 98.394531 186.542969 101.363281 188.132812 C 102.503906 188.585938 102.960938 189.949219 102.503906 191.082031 C 102.046875 192.21875 100.679688 192.671875 99.535156 192.21875 C 96.800781 191.082031 94.0625 190.402344 91.324219 190.402344 C 81.96875 190.402344 74.4375 197.4375 73.296875 206.289062 L 95.886719 206.289062 C 97.253906 206.289062 98.167969 207.199219 98.167969 208.558594 C 98.167969 209.921875 97.027344 210.828125 95.65625 210.828125 Z M 95.65625 210.828125 " fill-opacity="1" fill-rule="nonzero"/></g><g clip-path="url(#75717d0254)"><path fill="#333333" d="M 132.394531 183.59375 C 122.355469 183.59375 114.140625 175.421875 114.140625 165.433594 C 114.140625 155.449219 122.355469 147.277344 132.394531 147.277344 C 142.433594 147.277344 150.648438 155.449219 150.648438 165.433594 C 150.648438 175.421875 142.433594 183.59375 132.394531 183.59375 Z M 132.394531 151.816406 C 124.863281 151.816406 118.703125 157.945312 118.703125 165.433594 C 118.703125 172.925781 124.863281 179.054688 132.394531 179.054688 C 139.925781 179.054688 146.085938 172.925781 146.085938 165.433594 C 146.085938 157.945312 139.925781 151.816406 132.394531 151.816406 Z M 132.394531 151.816406 " fill-opacity="1" fill-rule="nonzero"/></g><g clip-path="url(#6810215a31)"><path fill="#333333" d="M 159.777344 215.367188 L 118.703125 215.367188 C 117.335938 215.367188 116.421875 214.460938 116.421875 213.097656 C 116.421875 211.738281 117.335938 210.828125 118.703125 210.828125 L 155.214844 210.828125 C 154.070312 199.480469 144.261719 190.402344 132.394531 190.402344 C 119.84375 190.402344 109.578125 200.617188 109.578125 213.097656 C 109.578125 214.460938 108.664062 215.367188 107.296875 215.367188 C 105.925781 215.367188 105.011719 214.460938 105.011719 213.097656 C 105.011719 198.117188 117.335938 185.863281 132.394531 185.863281 C 147.453125 185.863281 159.777344 198.117188 159.777344 213.097656 Z M 159.777344 215.367188 " fill-opacity="1" fill-rule="nonzero"/></g></svg>